<?xml version="1.0" encoding="UTF-8" standalone="no"?>
<svg
   xmlns:dc="http://purl.org/dc/elements/1.1/"
   xmlns:cc="http://creativecommons.org/ns#"
   xmlns:rdf="http://www.w3.org/1999/02/22-rdf-syntax-ns#"
   xmlns:svg="http://www.w3.org/2000/svg"
   xmlns="http://www.w3.org/2000/svg"
   xmlns:sodipodi="http://sodipodi.sourceforge.net/DTD/sodipodi-0.dtd"
   xmlns:inkscape="http://www.inkscape.org/namespaces/inkscape"
   width="1556.3496"
   height="2180.1475"
   viewBox="0 0 335.29 469.67614"
   version="1.1"
   id="svg3805"
   sodipodi:docname="css3logo.svg"
   inkscape:version="0.92.4 (5da689c313, 2019-01-14)">
  <metadata
     id="metadata3811">
    <rdf:RDF>
      <cc:Work
         rdf:about="">
        <dc:format>image/svg+xml</dc:format>
        <dc:type
           rdf:resource="http://purl.org/dc/dcmitype/StillImage" />
      </cc:Work>
    </rdf:RDF>
  </metadata>
  <defs
     id="defs3809" />
  <sodipodi:namedview
     pagecolor="#ffffff"
     bordercolor="#666666"
     borderopacity="1"
     objecttolerance="10"
     gridtolerance="10"
     guidetolerance="10"
     inkscape:pageopacity="0"
     inkscape:pageshadow="2"
     inkscape:window-width="1366"
     inkscape:window-height="705"
     id="namedview3807"
     showgrid="false"
     inkscape:zoom="0.15160369"
     inkscape:cx="1893.2033"
     inkscape:cy="1217.6399"
     inkscape:window-x="-8"
     inkscape:window-y="-8"
     inkscape:window-maximized="1"
     inkscape:current-layer="svg3805" />
  <path
     d="m -101.646,-34.4535 h 538.584 v 538.583 h -538.584 z"
     id="path3763"
     inkscape:connector-curvature="0"
     style="fill:none" />
  <path
     d="M 303.854,433.0005 167.644,469.6765 31.432,433.0005 0,92.4755 h 335.29 z"
     id="path3765"
     inkscape:connector-curvature="0"
     style="fill:#2062af" />
  <path
     d="m 167.643,120.0575 v 320.367 l 0.308,0.084 110.229,-29.682 25.443,-290.769 z"
     id="path3767"
     inkscape:connector-curvature="0"
     style="fill:#3c9cd7" />
  <path
     d="M 90.339,42.4455 V 22.1775 H 119.91 V -5e-4 H 68.161 v 62.684 h 51.749 v -20.238 z m 82.766,-20.268 h 20.674 V -5e-4 h -51.754 v 22.178 c 6.924,6.924 10.535,10.238 20.549,20.252 -5.854,0 -20.549,0.021 -20.549,0.02 v 20.234 h 51.754 v -20.238 z m 73.352,0 H 267.13 V -5e-4 h -51.756 v 22.178 c 6.924,6.924 10.537,10.238 20.551,20.252 -5.852,0 -20.551,0.021 -20.551,0.02 v 20.234 h 51.757 v -20.238 z"
     id="path3769"
     inkscape:connector-curvature="0" />
  <path
     d="m 167.522,205.2025 -97.49,40.602 3.233,40.199 94.257,-40.301 100.265,-42.868 4.157,-41.122 z"
     id="path3771"
     inkscape:connector-curvature="0"
     style="fill:#ffffff" />
  <linearGradient
     id="a"
     gradientUnits="userSpaceOnUse"
     x1="-825.508"
     y1="1338.301"
     x2="-825.508"
     y2="1419.1021"
     gradientTransform="matrix(1,0,0,-1,944.284,1624.3055)">
    <stop
       offset=".387"
       stop-color="#d1d3d4"
       stop-opacity="0"
       id="stop3773" />
    <stop
       offset="1"
       stop-color="#d1d3d4"
       id="stop3775" />
  </linearGradient>
  <path
     d="m 70.031,245.8045 3.233,40.199 94.257,-40.301 v -40.5 z"
     id="path3778"
     inkscape:connector-curvature="0"
     style="fill:url(#a)" />
  <linearGradient
     id="b"
     gradientUnits="userSpaceOnUse"
     x1="-724.552"
     y1="1378.6021"
     x2="-724.552"
     y2="1462.5909"
     gradientTransform="matrix(1,0,0,-1,944.284,1624.3055)">
    <stop
       offset=".387"
       stop-color="#d1d3d4"
       stop-opacity="0"
       id="stop3780" />
    <stop
       offset="1"
       stop-color="#d1d3d4"
       id="stop3782" />
  </linearGradient>
  <path
     d="m 271.944,161.7135 -104.422,43.489 v 40.5 l 100.265,-42.868 z"
     id="path3785"
     inkscape:connector-curvature="0"
     style="fill:url(#b)" />
  <linearGradient
     id="c"
     gradientUnits="userSpaceOnUse"
     x1="-874.10303"
     y1="1302.2629"
     x2="-680.039"
     y2="1302.2629"
     gradientTransform="matrix(1,0,0,-1,944.284,1624.3055)">
    <stop
       offset="0"
       stop-color="#e8e7e5"
       id="stop3787" />
    <stop
       offset="1"
       stop-color="#fff"
       id="stop3789" />
  </linearGradient>
  <path
     d="m 70.181,245.8045 3.234,40.199 144.625,0.461 -3.235,53.598 -47.59,13.398 -45.748,-11.551 -2.772,-33.268 H 76.187 l 5.545,64.225 85.945,25.412 85.479,-24.951 11.09,-127.523 z"
     id="path3792"
     inkscape:connector-curvature="0"
     style="fill:url(#c)" />
  <path
     d="m 167.522,245.8045 h -97.49 l 3.233,40.199 94.257,0.301 z m 0,107.528 -0.462,0.129 -45.742,-11.551 -2.772,-33.268 H 76.039 l 5.544,64.225 85.939,25.412 z"
     id="path3794"
     inkscape:connector-curvature="0"
     style="opacity:0.05" />
  <linearGradient
     id="d"
     gradientUnits="userSpaceOnUse"
     x1="-883.03198"
     y1="1442.031"
     x2="-672.341"
     y2="1442.031"
     gradientTransform="matrix(1,0,0,-1,944.284,1624.3055)">
    <stop
       offset="0"
       stop-color="#e8e7e5"
       id="stop3796" />
    <stop
       offset="1"
       stop-color="#fff"
       id="stop3798" />
  </linearGradient>
  <path
     d="m 61.252,161.7135 h 210.692 l -4.157,41.122 H 66.334 Z"
     id="path3801"
     inkscape:connector-curvature="0"
     style="fill:url(#d)" />
  <path
     d="M 167.522,161.7135 H 61.252 l 5.082,41.122 h 101.188 z"
     id="path3803"
     inkscape:connector-curvature="0"
     style="opacity:0.05" />
</svg>
